<?xml version="1.0" encoding="UTF-8" standalone="no"?>
<!DOCTYPE svg PUBLIC "-//W3C//DTD SVG 1.1//EN"
 "http://www.w3.org/Graphics/SVG/1.1/DTD/svg11.dtd">
<!-- Generated by graphviz version 2.28.0 (20130127.0148)
 -->
<!-- Title: tree Pages: 1 -->
<svg width="520pt" height="218pt"
 viewBox="0.00 0.00 520.00 218.00" xmlns="http://www.w3.org/2000/svg" xmlns:xlink="http://www.w3.org/1999/xlink">
<g id="graph1" class="graph" transform="scale(1 1) rotate(0) translate(4 214)">
<title>tree</title>
<polygon fill="white" stroke="white" points="-4,5 -4,-214 517,-214 517,5 -4,5"/>
<!-- Flushable -->
<g id="node1" class="node"><title>Flushable</title>
<polygon fill="none" stroke="black" stroke-dasharray="5,2" points="373.25,-94 300.75,-94 300.75,-58 373.25,-58 373.25,-94"/>
<text text-anchor="middle" x="337" y="-72.2" font-family="Times,serif" font-size="16.00">Flushable</text>
</g>
<!-- OutputStream -->
<g id="node16" class="node"><title>OutputStream</title>
<polygon fill="none" stroke="black" points="512.5,-36 411.5,-36 411.5,-0 512.5,-0 512.5,-36"/>
<text text-anchor="middle" x="462" y="-14.2" font-family="Times,serif" font-size="16.00">OutputStream</text>
</g>
<!-- Flushable&#45;&#45;OutputStream -->
<g id="edge28" class="edge"><title>Flushable&#45;&#45;OutputStream</title>
<path fill="none" stroke="black" stroke-dasharray="1,5" d="M373.491,-58.6519C389.345,-51.5496 407.916,-43.2298 423.942,-36.0502"/>
</g>
<!-- Closeable -->
<g id="node2" class="node"><title>Closeable</title>
<polygon fill="none" stroke="black" stroke-dasharray="5,2" points="466.25,-94 391.75,-94 391.75,-58 466.25,-58 466.25,-94"/>
<text text-anchor="middle" x="429" y="-72.2" font-family="Times,serif" font-size="16.00">Closeable</text>
</g>
<!-- Closeable&#45;&#45;OutputStream -->
<g id="edge26" class="edge"><title>Closeable&#45;&#45;OutputStream</title>
<path fill="none" stroke="black" stroke-dasharray="1,5" d="M439.08,-57.8939C443.175,-50.9462 447.893,-42.9383 451.981,-36.0014"/>
</g>
<!-- ROOT -->
<g id="node3" class="node"><title>ROOT</title>
<polygon fill="none" stroke="black" points="346,-210 292,-210 292,-174 346,-174 346,-210"/>
<text text-anchor="middle" x="319" y="-188.2" font-family="Times,serif" font-size="16.00">ROOT</text>
</g>
<!-- Net -->
<g id="node4" class="node"><title>Net</title>
<polygon fill="none" stroke="black" points="245.5,-152 186.5,-152 186.5,-116 245.5,-116 245.5,-152"/>
<text text-anchor="middle" x="216" y="-130.2" font-family="Times,serif" font-size="16.00">java.net</text>
</g>
<!-- ROOT&#45;&#45;Net -->
<g id="edge4" class="edge"><title>ROOT&#45;&#45;Net</title>
<path fill="none" stroke="black" d="M291.938,-176.287C277.752,-168.574 260.346,-159.111 245.779,-151.19"/>
</g>
<!-- IO -->
<g id="node5" class="node"><title>IO</title>
<polygon fill="none" stroke="black" points="410,-152 356,-152 356,-116 410,-116 410,-152"/>
<text text-anchor="middle" x="383" y="-130.2" font-family="Times,serif" font-size="16.00">java.io</text>
</g>
<!-- ROOT&#45;&#45;IO -->
<g id="edge2" class="edge"><title>ROOT&#45;&#45;IO</title>
<path fill="none" stroke="black" d="M338.55,-173.894C346.49,-166.946 355.642,-158.938 363.57,-152.001"/>
</g>
<!-- UnknownHostException -->
<g id="node10" class="node"><title>UnknownHostException</title>
<polygon fill="none" stroke="#454545" points="170.25,-94 -0.25,-94 -0.25,-58 170.25,-58 170.25,-94"/>
<text text-anchor="middle" x="85" y="-72.2" font-family="Times,serif" font-size="16.00" fill="#454545">UnknownHostException</text>
</g>
<!-- Net&#45;&#45;UnknownHostException -->
<g id="edge7" class="edge"><title>Net&#45;&#45;UnknownHostException</title>
<path fill="none" stroke="#454545" d="M186.274,-120.293C168.157,-112.548 144.772,-102.551 125.038,-94.1157"/>
</g>
<!-- Socket -->
<g id="node13" class="node"><title>Socket</title>
<polygon fill="none" stroke="black" points="243,-94 189,-94 189,-58 243,-58 243,-94"/>
<text text-anchor="middle" x="216" y="-72.2" font-family="Times,serif" font-size="16.00">Socket</text>
</g>
<!-- Net&#45;&#45;Socket -->
<g id="edge10" class="edge"><title>Net&#45;&#45;Socket</title>
<path fill="none" stroke="black" d="M216,-115.894C216,-108.946 216,-100.938 216,-94.0014"/>
</g>
<!-- IO&#45;&#45;Flushable -->
<g id="edge13" class="edge"><title>IO&#45;&#45;Flushable</title>
<path fill="none" stroke="black" d="M368.949,-115.894C363.242,-108.946 356.664,-100.938 350.965,-94.0014"/>
</g>
<!-- IO&#45;&#45;Closeable -->
<g id="edge14" class="edge"><title>IO&#45;&#45;Closeable</title>
<path fill="none" stroke="black" d="M397.051,-115.894C402.758,-108.946 409.336,-100.938 415.035,-94.0014"/>
</g>
<!-- IO&#45;&#45;OutputStream -->
<g id="edge15" class="edge"><title>IO&#45;&#45;OutputStream</title>
<path fill="none" stroke="black" d="M410.301,-129.551C431.904,-125.227 460.728,-115.551 475,-94 486.455,-76.7017 478.971,-52.4123 471.468,-36.2129"/>
</g>
<!-- SocketClose -->
<g id="node17" class="node"><title>SocketClose</title>
<polygon fill="none" stroke="gray" points="94,-36 40,-36 40,-0 94,-0 94,-36"/>
<text text-anchor="middle" x="67" y="-14.2" font-family="Times,serif" font-size="16.00" fill="gray">close()</text>
</g>
<!-- Socket&#45;&#45;SocketClose -->
<g id="edge24" class="edge"><title>Socket&#45;&#45;SocketClose</title>
<path fill="none" stroke="gray" d="M188.713,-61.9125C185.469,-60.5206 182.18,-59.1834 179,-58 146.043,-45.7365 135.892,-48.4361 103,-36 100.155,-34.9245 97.225,-33.7164 94.3226,-32.4533"/>
</g>
<!-- Socket(String, int) -->
<g id="node20" class="node"><title>Socket(String, int)</title>
<polygon fill="none" stroke="#454545" points="241.25,-36 112.75,-36 112.75,-0 241.25,-0 241.25,-36"/>
<text text-anchor="middle" x="177" y="-14.2" font-family="Times,serif" font-size="16.00" fill="#454545">Socket(String, int)</text>
</g>
<!-- Socket&#45;&#45;Socket(String, int) -->
<g id="edge18" class="edge"><title>Socket&#45;&#45;Socket(String, int)</title>
<path fill="none" stroke="black" d="M204.087,-57.8939C199.248,-50.9462 193.671,-42.9383 188.84,-36.0014"/>
</g>
<!-- getOutputStream() -->
<g id="node23" class="node"><title>getOutputStream()</title>
<polygon fill="none" stroke="black" points="392.25,-36 259.75,-36 259.75,-0 392.25,-0 392.25,-36"/>
<text text-anchor="middle" x="326" y="-14.2" font-family="Times,serif" font-size="16.00">getOutputStream()</text>
</g>
<!-- Socket&#45;&#45;getOutputStream() -->
<g id="edge21" class="edge"><title>Socket&#45;&#45;getOutputStream()</title>
<path fill="none" stroke="black" d="M243.191,-61.1573C258.078,-53.5783 276.655,-44.1212 292.438,-36.0859"/>
</g>
</g>
</svg>
